<svg id="smart_145_logo" xmlns="http://www.w3.org/2000/svg" viewBox="0 0 880.37 195.19">
    <defs>
        <style>.cls-1{fill:#12518f;}.cls-2{fill:#ed3e3e;}</style>
    </defs>
    <path class="cls-1"
          d="M262.87,437.7a61.13,61.13,0,0,1-20.06-7.84l7.05-34a52.35,52.35,0,0,0,18.83,12.25,61.93,61.93,0,0,0,22.56,4.31q19.61,0,22.85-15.67,1.42-6.83-4-10.7t-18.41-8.72q-6-2.2-7.33-2.88-13.92-5.29-20.69-14.35t-3.07-26.93a58,58,0,0,1,10.66-23.28,57,57,0,0,1,21.48-17.1q13.41-6.41,31.14-6.39a78.57,78.57,0,0,1,20.68,2.32,76.66,76.66,0,0,1,17.34,7.4l-7.09,34.21a68.26,68.26,0,0,0-16.34-11.71A41.84,41.84,0,0,0,319.16,314q-9.18,0-15.5,3.86A16.45,16.45,0,0,0,295.83,329q-1.2,5.75,1.39,9.38a16.78,16.78,0,0,0,7.07,5.63q4.48,2,14.6,5.52,12.09,4,19.43,8.84a27.8,27.8,0,0,1,10.65,13q3.3,8.17.66,21a60.73,60.73,0,0,1-10.87,24.28A57.33,57.33,0,0,1,318,433.74,62.34,62.34,0,0,1,289.92,440,136,136,0,0,1,262.87,437.7Z"
          transform="translate(-242.81 -286.41)"/>
    <path class="cls-1"
          d="M522.4,331.37q8.73,9.17,4.3,30.57l-15.56,75H480.08l14.18-68.42q4-19.2-16.45-19.21a28.23,28.23,0,0,0-15.26,4.19q-.68,5.29-1.32,8.39l-15.55,75H414.61l14.18-68.42q4-19.2-16.45-19.21a37.29,37.29,0,0,0-16.21,3.75L378.75,437H347.69l21.18-102.19q9.09-4.63,26.59-8.61t30.64-4q21.06,0,29.42,7.95a106.27,106.27,0,0,1,18.41-5.84,82,82,0,0,1,17.63-2.1Q513.67,322.21,522.4,331.37Z"
          transform="translate(-242.81 -286.41)"/>
    <path class="cls-1"
          d="M624.87,330.51q12.4,8.5,7.84,30.58l-11.14,52.75q-3.11,13.91-17.32,20.19t-39,6.28q-46.28,0-38.37-38.2Q530.17,386,541.54,377t30.12-9a54.17,54.17,0,0,1,15,2.1,43.84,43.84,0,0,1,12.23,5.41l1.46-7.06q4-19.2-19.37-19.21a60.38,60.38,0,0,0-19.16,3.42A61.69,61.69,0,0,0,545,360.84l6-29.13q6.45-4,18.62-6.84A110.93,110.93,0,0,1,595.15,322Q612.44,322,624.87,330.51Zm-38.49,85.08a7.83,7.83,0,0,0,5.45-6.18l3.57-17.21a42.34,42.34,0,0,0-15.5-2.66q-10.23,0-15.57,3.2a14.52,14.52,0,0,0-6.78,10q-1.32,6.41,2.75,10.38t10.75,4Q581.9,417.13,586.38,415.59Z"
          transform="translate(-242.81 -286.41)"/>
    <path class="cls-1"
          d="M711,432.4q-7.2-9-3.67-26l11.57-55.84H703.43l5.22-28h15.43l6.35-27.86H763l-6.36,27.86h23.14l-5.21,28H751.39l-10.71,51.65c-.79,3.83-.62,6.66.53,8.5s3.53,2.76,7.15,2.76a23.47,23.47,0,0,0,7.13-1.22,25.61,25.61,0,0,0,7-3.41l-5.81,28a43.35,43.35,0,0,1-20.35,4.62Q718.16,441.45,711,432.4Z"
          transform="translate(-242.81 -286.41)"/>
    <path class="cls-1"
          d="M700.4,322.11c-1.19-.05-2.41-.08-3.7-.08a79.88,79.88,0,0,0-19.18,2.54,133.43,133.43,0,0,0-18.77,6.06q-8.55,3.54-12.28,6.4L625.75,437h31.07l17.88-86.3a100.47,100.47,0,0,1,16.29-1.1c1.33,0,2.62,0,3.87,0Z"
          transform="translate(-242.81 -286.41)"/>
    <path class="cls-2"
          d="M1048.88,367.68H979.26l12-65.34c1.56-8.53-4.09-15.45-12.62-15.45H959.21a4.68,4.68,0,0,0-4.41,3.73L941.36,364a4.68,4.68,0,0,1-4.41,3.73H889.47l-15.77-29a8.21,8.21,0,0,0-7.65-4.57,12.77,12.77,0,0,0-12,10.16l-4.43,24.22c-3.46,18.86,9,34.14,27.88,34.14h53.08a3,3,0,0,1,3,3.73l-13.8,71.48a3,3,0,0,0,3.05,3.73h18c8.53,0,18.13-6.91,19.7-15.44l12.34-63.5h69.61c9.66,0,18.92-7.83,20.69-17.48S1058.54,367.68,1048.88,367.68Z"
          transform="translate(-242.81 -286.41)"/>
    <path class="cls-1"
          d="M1117.43,318.19l5.76-31.1H1022.72a17.75,17.75,0,0,0-17.46,14.58l-10.15,55.86,19.91.34h39.29c15.07,0,25.06,12.22,22.29,27.3h0c-2.76,15.07-17.22,27.29-32.3,27.29H985.15l-5.69,29.44h62.73c31.33,0,61.38-25.4,67.13-56.73h0c5.74-31.33-15-56.73-46.34-56.73H1036.3l1.88-10.25Z"
          transform="translate(-242.81 -286.41)"/>
    <path class="cls-1" d="M882.42,413.62h-4.35c-14.12,0-25.51-6.54-31.85-16.74l-8.4,44.57h39.57Z"
          transform="translate(-242.81 -286.41)"/>
    <path class="cls-1"
          d="M862.4,286.41l-36.25,24.9,14.14,24.48,17.41-11.62c2.95-2.29,6.37-2.85,10.22-2.85,4.69,0,10.1,2.15,12,5.72l14.25,23.41,11.57-64Z"
          transform="translate(-242.81 -286.41)"/>
</svg>
